<?xml version="1.0" encoding="utf-8" ?>
<svg baseProfile="full" height="297px" version="1.1" width="210px" xmlns="http://www.w3.org/2000/svg" xmlns:ev="http://www.w3.org/2001/xml-events" xmlns:xlink="http://www.w3.org/1999/xlink"><defs /><polyline clip-path="url(#border_clip)" fill="none" points="105.5,149.5 105.59999500004167,149.50099998333343 105.69997500070832,149.50299985000274 105.79993000408322,149.505999400023 105.89985001474932,149.50999833344167 105.99972504078882,149.51499625036874 106.09954509478234,149.52099265101668 106.19930019480766,149.52798693575042 106.29898036543793,149.53597840514735 106.39857563873913,149.54496626006716 106.49807605526694,149.55494960173183 106.5974716650626,149.56592743181554 106.69675252864799,149.57789865254443 106.79590871801946,149.5908620668064 106.89493031764073,149.60481637827084 106.99380742543433,149.6197601915182 107.09253015377189,149.63569201217962 107.19108863046286,149.65261024708633 107.28947299974166,149.6705132044289 107.38767342325339,149.68939909392654 107.48568008103751,149.70926602700607 107.58348317250993,149.73011201699066 107.68107291744299,149.75193497929874 107.77843955694352,149.77473273165228 107.87557335442872,149.79850299429498 107.97246459659979,149.82324339022043 108.06910359441325,149.84895144540965 108.16548068404984,149.87562458907854 108.26158622788091,149.90326015393495 108.35741061543219,149.93185537644544 108.45294426434474,149.96140739711157 108.54817762133331,149.99191326075592 108.64310116314157,150.02336991681753 108.7377053974944,150.055774219657 108.83198086404724,150.0891229288711 108.92591813533197,150.12341270961664 109.01950781769976,150.15864013294413 109.11274055226036,150.19480167614063 109.20560701581802,150.23189372308192 109.29809792180374,150.26991256459425 109.39020402120404,150.3088543988251 109.4819161034857,150.34871533162357 109.57322499751693,150.38949137692953" stroke="black" stroke-linecap="round" stroke-width="1" /><polyline clip-path="url(#border_clip)" fill="none" points="109.57322499751693,150.38949137692953 109.66412157248442,150.43117845717245 109.75459673880641,150.47377240367905 109.84464144904169,150.51726895709015 109.93424669879424,150.5616637677867 110.02340352761377,150.60695239632463 110.11210301989169,150.65313031387876 110.20033630575271,150.70019290269587 110.28809456194175,150.7481354565563 110.37536901270632,150.7969531812446 110.46215093067408,150.84664119502898 110.54843163772556,150.89719452914946 110.63420250586195,150.94860812831476 110.7194549580679,151.00087685120783 110.80418046916924,151.05399547099992 110.88837056668547,151.1079586758733 110.97201683167698,151.16276106955252 111.05511089958699,151.21839717184378 111.13764446107797,151.27486141918328 111.21960926286252,151.33214816519333 111.30099710852876,151.39025168124707 111.38179985935999,151.4491661570413 111.46200943514842,151.50888570117752 111.54161781500332,151.56940434175112 111.62061703815306,151.63071602694848 111.69899920474114,151.69281462565212 111.77675647661623,151.75569392805397 111.85388107811595,151.81934764627619 111.93036529684439,151.88376941499993 112.00620148444344,151.9489527921021 112.08138205735753,152.01489125929925 112.15589949759202,152.0815782227996 112.22974635346498,152.14900701396243 112.30291524035236,152.21717088996476 112.37539884142645,152.28606303447583 112.44718990838754,152.35567655833856 112.51828126218876,152.42600450025859 112.58866579375399,152.49703982750034 112.65833646468872,152.5687754365903 112.72728630798389,152.64120415402732 112.79550842871265,152.714318737 112.86299600471978,152.788111874111 112.92974228730391,152.8625761861081" stroke="black" stroke-linecap="round" stroke-width="1" /><polyline clip-path="url(#border_clip)" fill="none" points="112.92974228730391,152.8625761861081 112.99574060189241,152.93770422662212 113.0609843487088,153.01348848291164 113.1254670034328,153.0899213766142 113.18918211785267,153.1669952645041 113.25212332051004,153.24470243925677 113.3142843173371,153.32303513021952 113.37565889228598,153.40198550418853 113.43624090795032,153.48154566619215 113.49602430617905,153.56170766028055 113.55500310868217,153.64246347032105 113.61317141762855,153.72380502079997 113.6705234162358,153.80572417763008 113.72705336935184,153.88821274896392 113.78275562402845,153.97126248601313 113.83762461008662,154.05486508387318 113.89165484067343,154.13901218235398 113.94484091281086,154.22369536681578 113.99717750793603,154.3089061690107 114.04865939243302,154.39463606792955 114.09928141815631,154.4808764906539 114.14903852294547,154.5676188132133 114.19792573113153,154.6548543614478 114.24593815403438,154.74257441187527 114.29307099045175,154.83077019256376 114.33931952713928,154.9194328840087 114.38467913928184,155.00855362001485 114.42914529095601,155.09812348858287 114.4727135355837,155.18813353280052 114.5153795163767,155.2785747517384 114.55713896677254,155.36943810134997 114.59798771086096,155.46071449537604 114.63792166380158,155.5523948062532 114.6769368322324,155.6444698660268 114.7150293146691,155.73693046726763 114.75219530189514,155.82976736399254 114.7884310773428,155.92297127258925 114.82373301746475,156.0165328727446 114.85809759209636,156.11044280837652 114.8915213648088,156.20469168856968 114.92400099325268,156.29927008851462 114.9555332294922,156.3941685504502 114.98611492033004,156.48937758460923" stroke="black" stroke-linecap="round" stroke-width="1" /><polyline clip-path="url(#border_clip)" fill="none" points="114.98611492033004,156.48937758460923 115.01574300762256,156.58488767016772 115.04441452858576,156.68068925619664 115.07212661609141,156.77677276261724 115.09887649895387,156.87312858115897 115.12466150220715,156.96974707632023 115.14947904737238,157.06661858633205 115.17332665271576,157.16373342412416 115.1962019334966,157.26108187829368 115.2181026022059,157.35865421407635 115.23902646879505,157.45644067431988 115.2589714408948,157.55443148045975 115.27793552402458,157.65261683349698 115.29591682179188,157.7509869149781 115.31291353608191,157.84953188797695 115.32892396723739,157.94824189807835 115.34394651422856,158.0471070743635 115.35797967481324,158.14611753039725 115.37102204568704,158.2452633652164 115.38307232262378,158.34453466432015 115.39412930060578,158.44392150066133 115.40419187394448,158.54341393563908 115.41325903639091,158.64300202009284 115.42132988123639,158.74267579529717 115.42840360140316,158.84242529395758 115.4344794895251,158.94224054120733 115.43955693801846,159.0421115556049 115.44363543914262,159.14202835013202 115.44671458505087,159.24198093319256 115.44879406783117,159.3419593096115 115.449873679537,159.4419534816345 115.44995331220808,159.5419534499277 115.4490329578812,159.64194921457755 115.44711270859102,159.74193077609098 115.44419275636089,159.84188813639514 115.44027339318359,159.94181129983727 115.43535501099218,160.04169027418433 115.42943810162076,160.1415150716221 115.42252325675535,160.241275709754 115.41461116787468,160.3409622125994 115.40570262618104,160.44056461159107 115.39579852252116,160.54007294657208 115.38489984729718,160.63947726679189" stroke="black" stroke-linecap="round" stroke-width="1" /><polyline clip-path="url(#border_clip)" fill="none" points="115.38489984729718,160.63947726679189 115.37300769036752,160.73876763190128 115.36012324093797,160.83793411294653 115.34624778744272,160.93696679336216 115.3313827174156,161.03585576996264 115.31552951735117,161.1345911539327 115.29868977255626,161.23316307181625 115.28086516699132,161.33156166650366 115.26205748310203,161.42977709821741 115.24226860164111,161.5277995454962 115.22150050148024,161.62561920617702 115.1997552594121,161.72322629837527 115.17703504994279,161.8206110614631 115.15334214507432,161.91776375704532 115.12867891407744,162.01467466993336 115.10304782325468,162.11133410911668 115.07645143569378,162.20773240873194 115.04889241101134,162.30385992902947 115.02037350508684,162.39970705733737 114.99089756978711,162.49526420902265 114.96046755268112,162.59052182844982 114.92908649674524,162.68547038993628 114.89675754005889,162.78010039870503 114.8634839154908,162.87440239183402 114.8292689503757,162.96836693920255 114.79411606618162,163.06198464443418 114.75802877816764,163.1552461458364 114.7210106950325,163.24814211733678 114.68306551855369,163.34066326941561 114.64419704321722,163.43280035003474 114.60440915583823,163.5245441455629 114.5637058351723,163.61588548169703 114.52209115151759,163.70681522437962 114.47956926630778,163.79732428071213 114.43614443169594,163.8874035998644 114.39182099012937,163.97704417397955 114.34660337391529,164.06623703907488 114.30049610477761,164.15497327593823 114.25350379340485,164.2432440110198 114.20563113898898,164.33104041731974 114.15688292875554,164.41835371527048 114.10726403748494,164.50517517361504 114.05677942702495,164.59149611027993" stroke="black" stroke-linecap="round" stroke-width="1" /><polyline clip-path="url(#border_clip)" fill="none" points="114.05677942702495,164.59149611027993 114.00543414579457,164.6773078932434 113.95323332827908,164.76260194139869 113.90018219451679,164.84736972541205 113.84628604957685,164.93160276857571 113.79155028302881,165.01529264765557 113.73598036840376,165.09843099373344 113.67958186264681,165.181009493044 113.62236040556158,165.26301988780614 113.56432171924605,165.34445397704872 113.50547160752052,165.42530361743067 113.4458159553471,165.50556072405533 113.38536072824131,165.58521727127896 113.32411197167546,165.66426529351315 113.2620758104742,165.74269688602158 113.19925844820193,165.8205042057104 113.13566616654253,165.8976794719124 113.07130532467117,165.97421496716532 113.00618235861842,166.0501030379834 112.9403037806266,166.12533609562283 112.87367617849861,166.1999066168405 112.80630621493917,166.27380714464644 112.73820062688844,166.34703028904948 112.66936622484853,166.41956872779616 112.59980989220223,166.49141520710307 112.52953858452489,166.56256254238215 112.45855932888867,166.63300361895915 112.38687922316001,166.70273139278515 112.31450543528976,166.77173889114084 112.24144520259637,166.8400192133339 112.16770583104226,166.90756553138903 112.09329469450309,166.97437109073067 112.01821923403054,167.0404292108586 111.94248695710809,167.10573328601583 111.86610543690031,167.17027678584927 111.78908231149558,167.2340532560627 111.71142528314225,167.2970563190623 111.63314211747844,167.35927967459423 111.55424064275549,167.42071710037482 111.47472874905512,167.48136245271263 111.39461438750043,167.54120966712304 111.31390556946081,167.60025275893443 111.23261036575082,167.65848582388682" stroke="black" stroke-linecap="round" stroke-width="1" /><polyline clip-path="url(#border_clip)" fill="none" points="111.23261036575082,167.65848582388682 111.15073690582308,167.71590303872227 111.06829337695535,167.77249866176714 110.98528802343183,167.8282670335063 110.9017291457187,167.883202577149 110.81762509963409,167.93729979918672 110.7329842955125,167.99055328994228 110.64781519736384,168.042957724111 110.56212632202696,168.09450786129315 110.47592623831794,168.14519854651795 110.38922356617337,168.19502471075913 110.30202697578818,168.2439813714418 110.21434518674874,168.29206363294065 110.12618696716092,168.33926668706965 110.03756113277319,168.38558581356267 109.94847654609512,168.4310163805457 109.85894211551118,168.4755538449999 109.76896679438978,168.51919375321592 109.67855958018808,168.56193174123928 109.58772951355215,168.60376353530685 109.49648567741295,168.64468495227405 109.40483719607808,168.6846919000333 109.31279323431927,168.72378037792313 109.22036299645603,168.7619464771284 109.1275557254351,168.79918638107088 109.03438070190624,168.8354963657913 108.94084724329417,168.87087280032142 108.84696470286679,168.90531214704725 108.75274246879992,168.93881096206286 108.65818996323846,168.9713658955146 108.56331664135415,169.00297369193632 108.46813199040012,169.03363119057465 108.37264552876216,169.06333532570534 108.27686680500685,169.0920831269396 108.18080539692676,169.11987171952126 108.08447091058264,169.14669832461422 107.98787297934284,169.17256025958034 107.89102126291999,169.19745493824763 107.79392544640504,169.22137987116903 107.6965952392987,169.24433266587118 107.59904037454059,169.26631102709368 107.50127060753589,169.28731275701878 107.40329571517982,169.30733575549095" stroke="black" stroke-linecap="round" stroke-width="1" /><polyline clip-path="url(#border_clip)" fill="none" points="107.40329571517982,169.30733575549095 107.30512549487997,169.32637802022705 107.20676976357657,169.3444376470165 107.1082383567608,169.3615128299116 107.00954112749119,169.37760186140832 106.91068794540845,169.392703132617 106.8116886957484,169.40681513342295 106.71255327835352,169.41993645263798 106.61329160668294,169.43206577814104 106.51391360682108,169.44320189700971 106.41442921648513,169.45334369564137 106.31484838403122,169.46249015986461 106.21518106745962,169.47064037504063 106.11543723341892,169.47779352615473 106.01562685620941,169.4839488978977 105.91575991678562,169.48910587473756 105.8158464017583,169.4932639409809 105.71589630239566,169.49642268082454 105.61591961362437,169.49858177839715 105.51592633302998,169.49974101779077 105.41592645985723,169.4999002830824 105.31592999401009,169.4990595583457 105.21594693505183,169.4972189276524 105.11598728120502,169.49437857506405 105.01606102835176,169.4905387846135 104.91617816903404,169.48569994027667 104.81634869145456,169.47986252593392 104.7165825784779,169.4730271253218 104.61688980663222,169.46519442197473 104.5172803451116,169.45636519915647 104.41776415477922,169.44654033978196 104.31835118717117,169.43572082632895 104.21905138350135,169.42390774073976 104.11987467366741,169.41110226431312 104.02083097525767,169.397305677586 103.92193019255943,169.38251936020555 103.82318221556854,169.36674479079124 103.72459691900042,169.3499835467868 103.62618416130256,169.33223730430274 103.52795378366875,169.31350783794844 103.42991560905486,169.29379702065498 103.33207944119667,169.27310682348764 103.23445506362943,169.2514393154489" stroke="black" stroke-linecap="round" stroke-width="1" /><polyline clip-path="url(#border_clip)" fill="none" points="103.23445506362943,169.2514393154489 103.13705223870954,169.2287966632715 103.03988070663833,169.2051811312018 102.94295018448804,169.18059508077334 102.8462703652301,169.15504097057067 102.74985091676585,169.12852135598348 102.65370148095982,169.10103888895117 102.55783167267546,169.07259631769753 102.4622510788137,169.04319648645597 102.36696925735427,169.01284233518513 102.27199573639992,168.98153689927483 102.1773400132236,168.9492833092426 102.08301155331876,168.9160847904205 101.98901978945275,168.88194466263283 101.89537412072367,168.84686633986388 101.80208391162034,168.81085332991668 101.70915849108593,168.77390923406222 101.61660715158506,168.73603774667933 101.52443914817454,168.69724265488514 101.43266369757791,168.65752783815657 101.34128997726376,168.6168972679421 101.25032712452796,168.575355007265 101.15978423558,168.53290521031664 101.06967036463331,168.48955212204135 100.9799945229999,168.44530007771186 100.8907656781892,168.40015350249573 100.80199275301132,168.35411691101282 100.71368462468482,168.30719490688395 100.62585012394894,168.25939218227043 100.53849803418053,168.21071351740486 100.45163709051582,168.16116378011318 100.36527597897677,168.11074792532781 100.27942333560256,168.05947099459223 100.19408774558599,168.0073381155568 100.10927774241495,167.95435450146596 100.02500180701908,167.90052545063696 99.94126836692169,167.84585634593003 99.85808579539702,167.7903526542101 99.77546241063288,167.73401992580006 99.69340647489894,167.6768637939258 99.61192619372034,167.61888997415295 99.53102971505733,167.5601042638151 99.45072512849036,167.50051254143432" stroke="black" stroke-linecap="round" stroke-width="1" /><polyline clip-path="url(#border_clip)" fill="none" points="99.45072512849036,167.50051254143432 99.37102046441116,167.4401207661332 99.29192369321972,167.3789349770389 99.21344272452724,167.31696129267942 99.1355854063652,167.2542059103715 99.05835952440053,167.19067510560106 98.98177280115706,167.12637523139568 98.90583289524331,167.06131271768916 98.83054740058658,166.99549407067866 98.7559238456736,166.92892587217406 98.68196969279768,166.8616147789397 98.60869233731246,166.79356752202884 98.53609910689245,166.72479090611043 98.46419726080019,166.65529180878877 98.39299398916036,166.58507717991571 98.3224964122408,166.51415404089556 98.25271157974043,166.44252948398318 98.18364647008438,166.3702106715745 98.11530798972605,166.2972048354906 98.04770297245652,166.22351927625414 97.98083817872119,166.14916136235973 97.91472029494369,166.07413852953673 97.84935593285734,165.99845828000593 97.78475162884384,165.92212818172925 97.72091384327977,165.84515586765284 97.6578489598905,165.767549034944 97.5955632851118,165.68931544422134 97.53406304745924,165.61046291877872 97.47335439690535,165.530999343803 97.41344340426457,165.45093266558538 97.35433606058628,165.37027089072706 97.29603827655555,165.28902208533827 97.23855588190222,165.20719437423182 97.18189462481786,165.12479594011066 97.12606017138094,165.04183502274952 97.0710581049903,164.95831991817101 97.01689392580673,164.874258977816 96.96357305020302,164.78966060770847 96.91110081022228,164.7045332676149 96.8594824530448,164.6188854701984 96.80872314046327,164.53272578016734 96.75882794836666,164.44606281341888 96.7098018662326,164.35890523617752" stroke="black" stroke-linecap="round" stroke-width="1" /><polyline clip-path="url(#border_clip)" fill="none" points="96.7098018662326,164.35890523617752 96.66164979662842,164.27126176412835 96.61437655472099,164.1831411615455 96.5679868677951,164.09455224041585 96.52248537478077,164.00550385955765 96.47787662578939,163.9160049237348 96.43416508165869,163.82606438276628 96.39135511350665,163.73569123063126 96.34945100229442,163.6448945045696 96.30845693839818,163.5536832841783 96.26837702119019,163.46206669050338 96.22921525862874,163.3700538851278 96.19097556685747,163.27765406925548 96.1536617698137,163.184876482791 96.117277598846,163.09173040341568 96.0818266923412,162.99822514565983 96.04731259536037,162.9043700599713 96.01373875928445,162.8101745317805 95.98110854146908,162.7156479805617 95.94942520490885,162.62079985889125 95.918691917911,162.5256396515023 95.88891175377864,162.43017687433627 95.86008769050335,162.33442107359136 95.83222261046745,162.2383818247678 95.8053193001557,162.14206873171048 95.77938044987675,162.0454914256484 95.75440865349398,161.94865956423175 95.73040640816622,161.85158283056592 95.70737611409801,161.7542709322434 95.68532007429957,161.65673360037292 95.66424049435649,161.5589805886064 95.64413948220921,161.46102167216358 95.62501904794217,161.36286664685443 95.6068811035829,161.2645253280997 95.58972746291069,161.1660075499493 95.57355984127531,161.06732316409898 95.55837985542549,160.96848203890508 95.54418902334712,160.86949405839772 95.5309887641116,160.7703691212925 95.51878039773386,160.67111714000052 95.50756514504036,160.57174803963716 95.49734412754701,160.4722717570297 95.48811836734706,160.37269823972346" stroke="black" stroke-linecap="round" stroke-width="1" /><polyline clip-path="url(#border_clip)" fill="none" points="95.48811836734706,160.37269823972346 95.47988878700883,160.27303744498724 95.4726562094835,160.17329933881743 95.46642135802281,160.07349389494155 95.46118485610668,159.9736310938208 95.45694722738097,159.87372092165208 95.45370889560499,159.77377336936937 95.45147018460925,159.67379843164454 95.45023131826295,159.57380610588814 95.44999242045174,159.47380639124938 95.45075351506514,159.37380928761638 95.45251452599437,159.27382479461616 95.4552752771398,159.17386291061476 95.4590354924286,159.0739336317172 95.46379479584238,158.97404695076818 95.46955271145475,158.8742128563525 95.47630866347899,158.7744413317964 95.48406197632548,158.6747423541692 95.49281187466943,158.57512589328564 95.50255748352828,158.47560191070872 95.51329782834927,158.3761803587538 95.52503183510686,158.2768711794932 95.53775833041017,158.1776843037621 95.55147604162026,158.07862965016545 95.56618359697744,157.97971712408602 95.58187952573844,157.880956616694 95.59856225832347,157.78235800395782 95.61623012647316,157.68393114565663 95.63488136341542,157.5856858843942 95.6545141040421,157.48763204461477 95.67512638509548,157.38977943162067 95.69671614536466,157.2921378305916 95.7192812258916,157.19471700560632 95.74281937018705,157.09752669866614 95.7673282244562,157.00057662872075 95.79280533783401,156.90387649069638 95.81924816263042,156.80743595452623 95.84665405458496,156.71126466418355 95.87502027313128,156.61537223671723 95.90434398167118,156.51976826129012 95.9346222478582,156.4244622982201 95.96585204389099,156.32946387802403 95.99803024681597,156.23478250046475" stroke="black" stroke-linecap="round" stroke-width="1" /><polyline clip-path="url(#border_clip)" fill="none" points="95.99803024681597,156.23478250046475 96.03115363883964,156.14042763360118 96.06521890765042,156.0464087128413 96.10022264674981,155.9527351399989 96.13616135579306,155.85941628235318 96.17303144093924,155.76646147171212 96.21082921521054,155.67388000347935 96.24955089886103,155.58168113572452 96.28919261975463,155.4898740882576 96.32975041375227,155.39846804170682 96.37122022510835,155.30747213660064 96.41359790687628,155.21689547245379 96.45687922132322,155.12674710685712 96.50105984035379,155.03703605457218 96.5461353459429,154.94777128662935 96.59210123057755,154.8589617294311 96.6389528977076,154.77061626385907 96.68668566220535,154.68274372438626 96.73529475083414,154.59535289819334 96.78477530272562,154.50845252429016 96.83512236986583,154.42205129264164 96.88633091759002,154.336157843299 96.93839582508608,154.25078076553552 96.99131188590664,154.16592859698792 97.04507380848973,154.08160982280228 97.0996762166879,153.99783287478576 97.15511365030582,153.91460613056339 97.21138056564632,153.83193791274016 97.26847133606476,153.74983648806904 97.32638025253169,153.66831006662406 97.38510152420369,153.5873668009794 97.44462927900256,153.50701478539418 97.5049575642024,153.427262055003 97.56608034702496,153.34811658501246 97.62799151524293,153.26958628990357 97.69068487779104,153.19167902264044 97.7541541653853,153.11440257388483 97.81839303114985,153.03776467121727 97.88339505125163,152.9617729783641 97.94915372554279,152.88643509443133 98.01566247821071,152.81175855314456 98.08291465843557,152.73775082209568 98.15090354105536,152.6644193019961" stroke="black" stroke-linecap="round" stroke-width="1" /><polyline clip-path="url(#border_clip)" fill="none" points="98.15090354105536,152.6644193019961 98.21962232723847,152.59177132593675 98.28906414516356,152.5198141586547 98.35922205070673,152.44855499580672 98.43008902813585,152.3780009632497 98.50165799081226,152.30815911632806 98.57392178189932,152.23903643916833 98.64687317507814,152.17063984398067 98.72050487527021,152.1029761703675 98.79480951936684,152.03605218463989 98.86977967696558,151.9698745791406 98.9454078511131,151.904449971575 99.02168647905506,151.8397849043494 99.0986079329922,151.77588584391657 99.17616452084322,151.71275918012932 99.25434848701397,151.65041122560146 99.333152013173,151.58884821507647 99.41256721903336,151.52807630480405 99.49258616314064,151.46810157192465 99.57320084366712,151.40893001386155 99.65440319921191,151.35056754772125 99.73618510960713,151.29302000970173 99.81853839672989,151.23629315450884 99.90145482532012,151.1803926547808 99.98492610380403,151.12532410052106 100.06894388512335,151.0710929985391 100.15349976756995,151.01770477189993 100.23858529562608,150.96516475938174 100.3241919608098,150.913478214942 100.41031120252595,150.86265030719207 100.49693440892213,150.81268611888038 100.58405291774986,150.7635906463841 100.67165801723088,150.7153687992096 100.75974094692825,150.66802539950143 100.84829289862238,150.62156518156004 100.9373050171919,150.57599279136858 101.02676840149914,150.53131278612804 101.11667410528021,150.48752963380173 101.20701313803967,150.44464771266837 101.29777646594951,150.4026713108844 101.38895501275258,150.36160462605497 101.48053966067019,150.32145176481433 101.57252125131384,150.2822167424152" stroke="black" stroke-linecap="round" stroke-width="1" /><polyline clip-path="url(#border_clip)" fill="none" points="101.57252125131384,150.2822167424152 101.66489058660116,150.24390348232706 101.75763842967557,150.20651581584406 101.85075550583004,150.1700574817016 101.94423250343458,150.1345321257028 102.0380600748673,150.09994330035363" stroke="black" stroke-linecap="round" stroke-width="1" /><polyline clip-path="url(#border_clip)" fill="none" points="102.0380600748673,150.09994330035363 102.13222883744926,150.0662944645078 102.22672937438269,150.0335889830208 102.32155223569262,150.0018301264136 102.41668793917195,149.97102107054536 102.51212697132962,149.94116489629602 102.60785978834193,149.91226458925806 102.70387681700697,149.8843230394382 102.80016845570188,149.85734304096803 102.89672507534303,149.83132729182498 102.99353702034892,149.80627839356228 103.09059460960573,149.78219885104886 103.18788813743542,149.75909107221892 103.28540787456629,149.73695736783108 103.38314406910587,149.71579995123733 103.48108694751616,149.69562093816174 103.57922671559095,149.67642234648875 103.67755355943521,149.65820609606152 103.77605764644649,149.64097400848996 103.87472912629818,149.62472780696845 103.9735581319245,149.60946911610358 104.0725347805073,149.59519946175178 104.17164917446414,149.5819202708665 104.27089140243825,149.56963287135585 104.37025154028953,149.5583384919495 104.469719652087,149.548038262076 104.56928579110235,149.53873321174973 104.66894000080467,149.53042427146798 104.76867231585602,149.52311227211786 104.86847276310803,149.5167979448932 104.96833136259912,149.51148192122147 105.06823812855255,149.5071647327006 105.16818307037501,149.50384681104583 105.26815619365557,149.5015284880466 105.36814750116524,149.50020999553325 105.46814699385656,149.49989146535393 105.56814467186365,149.5005729293614 105.66813053550199,149.50225431940984 105.76809458626855,149.50493546736163 105.86802682784156,149.5086161051042 105.96791726708015,149.5132958645769 106.06775591502362,149.5189742778076 106.1675327878904,149.52565077695974" stroke="black" stroke-linecap="round" stroke-width="0" /><polyline clip-path="url(#border_clip)" fill="none" points="106.1675327878904,149.52565077695974 106.26723790807631,149.533324694389 106.36686130515245,149.54199526271 106.46639301686213,149.55166161487315 106.56582309011712,149.56232278425128 106.66514158199293,149.5739777047363 106.76433856072316,149.58662521084597 106.8634041066926,149.6002640378401 106.96232831342921,149.61489282184746 107.06110128859474,149.63051010000177 107.15971315497399,149.64711431058828 107.2581540514625,149.66470379319972 107.35641413405266,149.68327678890253 107.45448357681808,149.70283144041258 107.55235257289621,149.72336579228104 107.650011335469,149.7448777910898 107.7474500987416,149.76736528565698 107.84465911891886,149.79082602725177 107.94162867517976,149.81525766981963 108.03834907064949,149.84065777021664 108.13481063336911,149.8670237884539 108.23100371726274,149.8943530879516 108.32691870310212,149.92264293580257 108.42254599946862,149.95189050304555 108.51787604371229,149.9820928649482 108.61289930290815,150.01324700129956 108.70760627480945,150.0453497967119 108.80198748879792,150.07839804093243 108.89603350683085,150.11238842916427 108.98973492438476,150.14731756239695 109.08308237139602,150.18318194774622 109.17606651319768,150.21997799880347 109.26867805145308,150.2577020359942 109.36090772508555,150.2963502869462 109.45274631120459,150.33591888686652 109.54418462602811,150.3764038789282 109.63521352580085,150.4178012146657 109.72582390770867,150.46010675438 109.81600671078891,150.50331626755238 109.90575291683638,150.5474254332675 109.99505355130529,150.59242984064556 110.0838996842066,150.63832498928332 110.17228243100105,150.68510628970418" stroke="black" stroke-linecap="round" stroke-width="0" /><polyline clip-path="url(#border_clip)" fill="none" points="110.17228243100105,150.68510628970418 110.26019295348763,150.73276906381707 110.34762246068735,150.7813085453843 110.43456220972233,150.83071988049815 110.52100350669012,150.88099812806632 110.60693770753308,150.93213826030592 110.6923562189027,150.98413516324635 110.77725049901906,151.03698363724064 110.86161205852488,151.09067839748542 110.9454324613345,151.14521407454947 111.02870332547751,151.20058521491046 111.11141632393687,151.25678628150052 111.19356318548166,151.31381165425987 111.2751356954942,151.37165563069868 111.35612569679144,151.43031242646754 111.43652509044077,151.4897761759358 111.5163258365698,151.550040932778 111.59551995517043,151.61110067056867 111.6740995268968,151.67294928338498 111.75205669385721,151.73558058641714 111.82938366039993,151.79898831658707 111.90607269389274,151.86316613317456 111.9821161254962,151.92810761845143 112.05750635093054,151.99380627832332 112.13223583123602,152.06025554297895 112.20629709352687,152.12744876754724 112.2796827317386,152.19537923276172 112.35238540736856,152.26404014563246 112.42439785020974,152.33342464012546 112.49571285907787,152.403525777849 112.56632330253152,152.4743365487478 112.63622211958514,152.54584987180374 112.70540232041532,152.61805859574412 112.7738569870596,152.69095549975668 112.84157927410837,152.76453329421184 112.90856240938935,152.83878462139143 112.97479969464484,152.9137020562246 113.04028450620152,152.9892781070303 113.1050102956328,153.06550521626644 113.16897059041365,153.14237576128562 113.23215899456792,153.21988205509737 113.29456918930786,153.29801634713695 113.35619493366598,153.37677082404022" stroke="black" stroke-linecap="round" stroke-width="0" /><polyline clip-path="url(#border_clip)" fill="none" points="113.35619493366598,153.37677082404022 113.4170300651192,153.45613761042512 113.47706850020508,153.53610876967917 113.53630423513015,153.6166763047531 113.59473134637027,153.69783215896052 113.652343991263,153.77956821678364 113.70913640859186,153.86187630468478 113.76510291916246,153.94474819192376 113.82023792637038,154.02817559138091 113.87453591676083,154.11215016038582 113.92799146058003,154.19666350155154 113.98059921231814,154.28170716361439 114.03235391124383,154.36727264227903 114.08325038193033,154.45335138106893 114.13328353477299,154.5399347721819 114.1824483664982,154.62701415735103 114.23073996066381,154.7145808287103 114.2781534881506,154.80262602966562 114.32468420764533,154.8911409557702 114.37032746611484,154.98011675560525 114.41507869927135,155.0695445316649 114.45893343202879,155.15941534124605 114.50188727895043,155.24972019734267 114.5439359446874,155.34045006954437 114.58507522440817,155.43159588493958 114.62530100421903,155.52314852902268 114.66460926157552,155.61509884660558 114.70299606568467,155.70743764273314 114.74045757789806,155.80015568360267 114.77699005209568,155.89324369748738 114.81258983506055,155.98669237566344 114.84725336684406,156.08049237334092 114.88097718112189,156.1746343105982 114.91375790554073,156.26910877332003 114.94559226205547,156.36390631413883 114.97647706725697,156.45901745337954 115.00640923269043,156.5544326800075 115.03538576516428,156.65014245257953 115.06340376704941,156.74613720019815 115.09046043656897,156.84240732346862 115.11655306807857,156.9389431954588 115.1416790523368,157.03573516266192 115.16583587676615,157.13277354596198" stroke="black" stroke-linecap="round" stroke-width="0" /><polyline clip-path="url(#border_clip)" fill="none" points="115.16583587676615,157.13277354596198 115.18902112570436,157.23004864160148 115.21123248064579,157.32755072215193 115.23246772047351,157.4252700374865 115.2527247216812,157.52319681575514 115.27200145858563,157.62132126436157 115.29029600352919,157.71963357094273 115.30760652707261,157.81812390434987 115.32393129817797,157.91678241563176 115.33926868438175,158.01559923901948 115.35361715195812,158.114564492913 115.36697526607229,158.21366828086943 115.37934169092398,158.31290069259254 115.39071518988098,158.41225180492387 115.40109462560291,158.511711682835 115.41047896015482,158.611270380421 115.4188672551111,158.71091794189505 115.42625867164922,158.81064440258407 115.4326524706337,158.9104397899251 115.43804801268996,159.01029412446255 115.44244475826831,159.1101974208462 115.44584226769783,159.21013968882966 115.44824020123042,159.3101109342694 115.44963831907474,159.41010116012419 115.45003648142014,159.51010036745478 115.44943464845075,159.61009855642376 115.44783288034934,159.71008572729556 115.44523133729139,159.81005188143646 115.44163027942905,159.90998702231428 115.43703006686509,160.00988115649827 115.43143115961695,160.1097242946582 115.42483411757068,160.20950645256352 115.41723960042498,160.30921765208154 115.40864836762525,160.40884792217543 115.3990612782876,160.5083872999012 115.38847929111299,160.607825831404 115.37690346429129,160.70715357291357 115.36433495539555,160.80636059173855 115.3507750212662,160.9054369672597 115.33622501788534,161.00437279192204 115.32068640024119,161.10315817222553 115.30416072218254,161.2017832297145 115.28664963626346,161.30023810196536" stroke="black" stroke-linecap="round" stroke-width="0" /><polyline clip-path="url(#border_clip)" fill="none" points="115.28664963626346,161.30023810196536 115.26815489357794,161.39851294357297 115.24867834358483,161.49659792713499 115.2282219339229,161.59448324423488 115.20678771021605,161.69215910642242 115.18437781586883,161.78961574619288 115.16099449185197,161.88684341796343 115.13664007647839,161.98383239904794 115.11131700516933,162.08057299062912 115.08502781021083,162.17705551872842 115.05777512050048,162.27327033517346 115.02956166128452,162.36920781856273 115.00039025388537,162.4648583752279 114.97026381541947,162.56021244019294 114.93918535850557,162.65526047813088 114.90715799096343,162.7499929843171 114.87418491550314,162.8444004855799 114.84026942940474,162.93847354124787 114.80541492418863,163.03220274409384 114.76962488527623,163.1255787212756 114.73290289164164,163.21859213527327 114.69525261545361,163.31123368482295 114.6566778217084,163.40349410584687 114.6171823678532,163.49536417237985 114.57677020340053,163.58683469749175 114.53544536953312,163.67789653420633 114.49321199869995,163.76854057641577 114.45007431420288,163.8587577597914 114.40603662977445,163.94853906269006 114.36110334914636,164.03787550705627 114.31527896560925,164.12675815932005 114.2685680615633,164.21517813129026 114.22097530805996,164.30312658104333 114.17250546433496,164.39059471380762 114.12316337733223,164.47757378284274 114.0729539812194,164.56405509031427 114.0218822968942,164.6500299881635 113.96995343148254,164.73548987897234 113.91717257782766,164.82042621682288 113.86354501397095,164.90483050815214 113.80907610262412,164.98869431260133 113.75377129063288,165.07200924385984 113.69763610843238,165.15476697050406" stroke="black" stroke-linecap="round" stroke-width="0" /><polyline clip-path="url(#border_clip)" fill="none" points="113.69763610843238,165.15476697050406 113.64067616949403,165.2369592168302 113.58289716976428,165.31857776368219 113.52430488709494,165.39961444927332 113.46490518066547,165.48006117000259 113.40470399039698,165.55990988126493 113.34370733635836,165.63915259825578 113.28192131816417,165.71778139676948 113.21935211436474,165.7957884139917 113.15600598182832,165.87316584928567 113.09188925511536,165.94990596497243 113.0270083458451,166.0260010871043 112.96136974205442,166.1014436062325 112.89498000754898,166.176225978168 112.82784578124692,166.25034072473588 112.75997377651493,166.32378043452331 112.6913707804969,166.39653776362044 112.62204365343528,166.46860543635503 112.551999327985,166.53997624601988 112.48124480852023,166.61064305559347 112.40978717043396,166.68059879845373 112.33763355943046,166.7498364790847 112.26479119081068,166.81834917377597 112.1912673487508,166.8861300313152 112.11706938557374,166.9531722736731 112.042204721014,167.0194691966813 111.96668084147565,167.0850141707028 111.89050529928369,167.14980064129475 111.81368571192888,167.2138221298641 111.73622976130594,167.27707223431537 111.65814519294536,167.33954462969078 111.57943981523893,167.40123306880287 111.50012149865881,167.46213138285916 111.4201981749706,167.52223348207897 111.33967783644003,167.58153335630246 111.25856853503387,167.64002507559164 111.17687838161466,167.6977027908233 111.09461554512967,167.754560734274 111.011788251794,167.8105932201968 110.92840478426795,167.86579464538974 110.84447348082881,167.92015948975634 110.76000273453695,167.9736823168575 110.67500099239663,168.02635777445502" stroke="black" stroke-linecap="round" stroke-width="0" /><polyline clip-path="url(#border_clip)" fill="none" points="110.67500099239663,168.02635777445502 110.58947675451124,168.07818059504712 110.50343857323327,168.1291455963949 110.41689505230916,168.17924768204068 110.32985484601888,168.22848184181768 110.24232665831053,168.27684315235092 110.15431924192995,168.32432677754966 110.06584139754543,168.37092796909093 109.97690197286767,168.41664206689444 109.88750986176503,168.46146449958852 109.79767400337413,168.50539078496718 109.70740338120594,168.54841653043857 109.61670702224745,168.59053743346394 109.52559399605899,168.6317492819881 109.43407341386722,168.67204795486057 109.34215442765414,168.71142942224762 109.24984622924173,168.74988974603534 109.15715804937292,168.7874250802234 109.06409915678847,168.82403167130963 108.97067885730009,168.85970585866545 108.87690649285986,168.89444407490188 108.78279144062608,168.9282428462262 108.68834311202556,168.96109879278947 108.59357095181245,168.99300862902442 108.49848443712379,169.02396916397396 108.40309307653182,169.05397730161047 108.3074064090931,169.08303004114518 108.21143400339463,169.1111244773283 108.115185456597,169.13825780073967 108.01867039347471,169.16442729806954 107.92189846545361,169.18963035238997 107.82487934964587,169.21386444341655 107.72762274788224,169.2371271477604 107.63013838574182,169.2594161391704 107.5324360115796,169.28072918876606 107.43452539555159,169.30106416526013 107.33641632863778,169.32041903517194 107.23811862166313,169.3387918630306 107.1396421043164,169.35618081156863 107.04099662416726,169.37258414190572 106.94219204568154,169.38800021372242 106.84323824923474,169.40242748542448 106.74414513012404,169.4158645142967" stroke="black" stroke-linecap="round" stroke-width="0" /><polyline clip-path="url(#border_clip)" fill="none" points="106.74414513012404,169.4158645142967 106.64492259757878,169.4283099566474 106.54558057376953,169.43976256794272 106.44612899281589,169.4502212029311 106.34657779979307,169.45968481575773 106.2469369497374,169.46815246006918 106.14721640665088,169.47562328910814 106.0474261425047,169.4820965557979 105.94757613624213,169.4875716128172 105.8476763727806,169.49204791266484 105.74773684201315,169.49552500771466 105.64776753780964,169.49800255026 105.54777845701715,169.49948029254867 105.44777959846043,169.49995808680768 105.34778096194202,169.499435885258 105.24779254724224,169.49791374011937 105.14782435311922,169.495391803605 105.04788637630908,169.49187032790647 104.94798861052621,169.48734966516838 104.84814104546395,169.4818302674533 104.7483536657956,169.47531268669633 104.64863645017596,169.46779757465012 104.54899937024351,169.45928568281968 104.44945238962319,169.44977786238704 104.35000546293014,169.43927506412635 104.25066853477412,169.42777833830866 104.1514515387652,169.415288834597 104.05236439652028,169.40180780193128 103.953417016671,169.3873365884036 103.85461929387291,169.3718766411232 103.75598110781597,169.35542950607197 103.65751232223656,169.33799682794967 103.55922278393119,169.3195803500096 103.46112232177178,169.30018191388422 103.3632207457228,169.27980345940094 103.26552784586028,169.25844702438826 103.16805339139279,169.23611474447188 103.07080712968452,169.2128088528612 102.97379878528065,169.1885316801259 102.87703805893476,169.16328565396307 102.78053462663884,169.13707329895428 102.6842981386557,169.1098972363132 102.58833821855397,169.0817601836234" stroke="black" stroke-linecap="round" stroke-width="0" /><polyline clip-path="url(#border_clip)" fill="none" points="102.58833821855397,169.0817601836234 102.49266446224567,169.05266495456675 102.3972864370267,169.0226144586419 102.30221368062011,168.9916117008734 102.20745570022231,168.95965978151116 102.11302197155239,168.92676189572055 102.0189219379045,168.89292133326268 101.92516500920358,168.8581414781656 101.8317605610644,168.82242580838584 101.73871793385393,168.78577789546065 101.64604643175734,168.74820140415076 101.55375532184763,168.709700092074 101.46185383315888,168.67027780932946 101.37035115576337,168.62993849811258 101.27925643985257,168.58868619232086 101.1885787948222,168.54652501715054 101.09832728836116,168.50345918868393 101.00851094554491,168.45949301346806 100.91913874793288,168.4146308880838 100.83021963267034,168.36887729870625 100.74176249159473,168.3222368206563 100.65377617034645,168.2747141179428 100.56626946748429,168.22631394279648 100.47925113360563,168.17704113519454 100.39272987047131,168.1269006223766 100.30671433013559,168.07589741835224 100.22121311408078,168.0240366233993 100.13623477235727,167.9713234235541 100.0517878027284,167.91776309009268 99.96788064982076,167.86336097900374 99.8845217042797,167.80812253045306 99.80171930193035,167.75205326823948 99.71948172294393,167.69515879924248 99.63781719100977,167.63744481286156 99.55673387251306,167.57891708044727 99.47623987571806,167.51958145472403 99.39634324995737,167.45944386920505 99.31705198482699,167.39851033759868 99.23837400938734,167.33678695320737 99.16031719137042,167.27427988831806 99.08288933639298,167.21099539358522 99.006098187176,167.14693979740554 98.9299514227704,167.08211950528528" stroke="black" stroke-linecap="round" stroke-width="0" /><polyline clip-path="url(#border_clip)" fill="none" points="98.9299514227704,167.08211950528528 98.85445665778916,167.0165409991996 98.77962144164587,166.9502108369445 98.7054532577998,166.88313565148093 98.6319595230075,166.8153221502715 98.55914758658122,166.74677711460987 98.48702472965392,166.67750739894245 98.41559816445121,166.6075199301831 98.34487503357006,166.53682170702035 98.27486240926464,166.46541979921764 98.20556729273903,166.39332134690622 98.13699661344715,166.32053355987125 98.06915722839976,166.24706371683078 98.00205592147886,166.17291916470788 97.93569940275921,166.09810731789597 97.87009430783738,166.0226356575174 97.8052471971682,165.9465117306753 97.74116455540872,165.86974314969896 97.67785279076966,165.79233759138245 97.61531823437477,165.71430279621714 97.55356713962756,165.63564656761747 97.49260568158604,165.5563767711408 97.43243995634523,165.4765013337007 97.37307598042752,165.39602824277438 97.314519690181,165.3149655456038 97.25677694118593,165.2333213483912 97.19985350766908,165.15110381548823 97.14375508192636,165.06832116857964 97.0884872737536,164.98498168586121 97.03405560988556,164.9010937012117 96.98046553344327,164.8166656033597 96.9277224033897,164.7317058350446 96.87583149399393,164.64622289217246 96.82479799430364,164.56022532296635 96.77462700762626,164.4737217271115 96.72532355101869,164.3867207548954 96.67689255478547,164.29923110634283 96.62933886198587,164.21126153034567 96.58266722794954,164.1228208237882 96.53688231980101,164.03391783066746 96.49198871599292,163.9445614412086 96.44799090584824,163.85476059097613 96.40489328911134,163.76452425998025" stroke="black" stroke-linecap="round" stroke-width="0" /><polyline clip-path="url(#border_clip)" fill="none" points="96.40489328911134,163.76452425998025 96.36270017550795,163.67386147177888 96.3214157843143,163.58278129257522 96.28104424393507,163.49129283031135 96.2415895914907,163.39940523375722 96.2030557724135,163.30712769159595 96.16544664005332,163.21446943150482 96.12876595529204,163.12143971923265 96.09301738616755,163.02804785767313 96.05820450750697,162.93430318593462 96.02433080056919,162.84021507840612 95.99139965269664,162.74579294382002 95.9594143569767,162.65104622431107 95.92837811191225,162.5559843944723 95.89829402110195,162.4606169604074 95.86916509292982,162.3649534587804 95.8409942402644,162.26900345586168 95.81378428016745,162.17277654657158 95.78753793361236,162.07628235352087 95.76225782521186,161.97953052604842 95.73794648295576,161.88253073925637 95.71460633795802,161.78529269304252 95.69223972421366,161.6878261111305 95.67084887836546,161.5901407400973 95.65043593948015,161.49224634839857 95.63100294883462,161.3941527253919 95.61255184971174,161.2958696803579 95.59508448720602,161.19740704151914 95.5786026080392,161.09877465505744 95.56310786038543,160.99998238412925 95.54860179370658,160.90104010787937 95.53508585859721,160.80195772045295 95.52256140663958,160.70274513000618 95.51102969026846,160.6034122577154 95.50049186264586,160.5039690367851 95.49094897754577,160.40442541145444 95.48240198924873,160.30479133600306 95.47485175244648,160.20507677375548 95.46829902215637,160.1052916960848 95.462744453646,160.00544608141564 95.45818860236758,159.90554991422624 95.45463192390244,159.80561318405012 95.45207477391547,159.705645884477" stroke="black" stroke-linecap="round" stroke-width="0" /><polyline clip-path="url(#border_clip)" fill="none" points="95.45207477391547,159.705645884477 95.45051740811952,159.60565801215353 95.4499599822499,159.5056595657836 95.4504025520487,159.4056605451285 95.45184507325932,159.30567095000703 95.45428740163086,159.20570077929534 95.4577292929325,159.10576002992718 95.46217040297799,159.00585869589423 95.46761028766001,158.90600676724665 95.47404840299463,158.80621422909405 95.4814841051757,158.7064910606071 95.48991665063916,158.60684723401957 95.49934519613754,158.50729271363107 95.5097687988241,158.40783745481068 95.52118641634729,158.30849140300137 95.53359690695487,158.2092644927256 95.54699902960809,158.11016664659164 95.5613914441059,158.01120777430157 95.57677271121881,157.91239777166012 95.59314129283293,157.81374651958527 95.61049555210374,157.71526388311995 95.6288337536198,157.61695971044574 95.64815406357621,157.51884383189804 95.66845454995808,157.42092605898293 95.6897331827337,157.32321618339606 95.71198783405752,157.22572397604358 95.73521627848295,157.12845918606502 95.7594161931849,157.0314315398583 95.78458515819207,156.93465074010717 95.81072065662894,156.83812646481098 95.83782007496745,156.7418683663168 95.86588070328833,156.6458860703543 95.89489973555214,156.55018917507303 95.92487426987984,156.45478725008283 95.95580130884298,156.35968983549665 95.98767775976341,156.26490644097674 96.02050043502265,156.17044654478357 96.05426605238048,156.076319592828 96.08897123530332,155.98253499772684 96.1246125133018,155.88910213786139 96.16118632227783,155.79603035643981 96.19868900488098,155.7033289605627 96.23711681087423,155.61100722029235" stroke="black" stroke-linecap="round" stroke-width="0" /><polyline clip-path="url(#border_clip)" fill="none" points="96.23711681087423,155.61100722029235 96.27646589750901,155.5190743677259 96.31673232990946,155.42753959607194 96.35791208146588,155.3364120587314 96.40000103423746,155.24570086838207 96.44299497936396,155.1554150960674 96.48688961748672,155.06556377028934 96.53168055917848,154.97615587610565 96.57736332538244,154.8872003542312 96.62393334786,154.79870610014407 96.67138596964776,154.71068196319592 96.71971644552306,154.62313674572707 96.76891994247859,154.53607920218633 96.81899154020567,154.44951803825552 96.86992623158625,154.3634619099789 96.92171892319362,154.27791942289753 96.9743644358018,154.1928991311889 97.0278575049034,154.1084095368113 97.08219278123607,154.02445908865377 97.13736483131748,153.94105618169115 97.19336813798857,153.85820915614465 97.25019710096538,153.77592629664778 97.30784603739893,153.69421583141792 97.36630918244363,153.61308593143352 97.42558068983371,153.53254470961693 97.48565463246781,153.45260022002324 97.54652500300173,153.3732604570348 97.60818571444915,153.29453335456176 97.67063060079029,153.2164267852488 97.73385341758858,153.13894855968775 97.797847842615,153.06210642563659 97.86260747648038,152.98590806724468 97.92812584327531,152.9103611042844 97.9943963912177,152.83547309138902 98.061412493308,152.7612515172975 98.12916744799183,152.68770380410538 98.19765447983019,152.61483730652265 98.26686674017695,152.5426593111384 98.33679730786378,152.47117703569197 98.40743918989217,152.40039762835139 98.4787853221328,152.33032816699836 98.55082857003188,152.26097565852064 98.62356172932466,152.1923470381113" stroke="black" stroke-linecap="round" stroke-width="0" /><polyline clip-path="url(#border_clip)" fill="none" points="98.62356172932466,152.1923470381113 98.69697752675584,152.12444916857518 98.77106862080684,152.05728883964267 98.84582760243,151.99087276729065 98.92124699578947,151.92520759307104 98.99731925900875,151.86029988344654 99.0740367849249,151.79615612913403 99.15139190184928,151.7327827444555 99.22937687433465,151.67018606669657 99.30798390394875,151.60837235547285 99.38720513005413,151.547347792104 99.46703263059419,151.48711847899546 99.5474584228854,151.42769043902837 99.62847446441556,151.3690696149572 99.71007265364801,151.31126186881548 99.79224483083185,151.2542729813297 99.87498277881782,151.19810865134107 99.95827822388009,151.14277449523584 100.04212283654354,151.08827604638347 100.12650823241678,151.03461875458342 100.21142597303056,150.9818079855202 100.29686756668157,150.92984902022664 100.38282446928166,150.87874705455604 100.46928808521217,150.82850719866232 100.55624976818359,150.77913447648928 100.64370082210009,150.73063382526792 100.73163250192913,150.683010095023 100.82003601457602,150.6362680480878 100.90890251976316,150.59041235862813 100.99822313091408,150.54544761217466 101.08798891604212,150.50137830516462 101.17819089864356,150.45820884449193 101.26882005859531,150.41594354706672 101.35986733305688,150.37458663938352 101.45132361737673,150.3341422570986 101.54317976600261,150.2946144446165 101.63542659339622,150.25600715468556 101.7280548749517,150.21832424800255 101.82105534791806,150.18156949282675 101.91441871232551,150.1457465646031 102.00813563191544,150.11085904559448 46.259862809634484,170.23157766187654" stroke="black" stroke-linecap="round" stroke-width="0" /></svg>