<?xml version="1.0" encoding="utf-8" ?>
<svg baseProfile="full" height="297px" version="1.1" width="210px" xmlns="http://www.w3.org/2000/svg" xmlns:ev="http://www.w3.org/2001/xml-events" xmlns:xlink="http://www.w3.org/1999/xlink"><defs /><polyline clip-path="url(#border_clip)" fill="none" points="105.5,149.5 100.5,149.5 100.5,124.5" stroke="black" stroke-linecap="round" stroke-width="0" /><polyline clip-path="url(#border_clip)" fill="none" points="100.5,124.5 111.5,124.5 111.50000000000001,99.5" stroke="black" stroke-linecap="round" stroke-width="0" /><polygon clip-path="url(#border_clip)" fill="#ffffff" fill-rule="evenodd" points="111.50000000000001,99.5 199.5,99.50000000000004 199.50000000000006,11.500000000000057 111.50000000000006,11.5 111.5,99.5" stroke-width="0" /><polyline clip-path="url(#border_clip)" fill="none" points="111.50000000000001,99.5 199.5,99.50000000000004 199.50000000000006,11.500000000000057 111.50000000000006,11.5 111.5,99.5 133.5,99.50000000000001 133.5,77.50000000000001 133.5,99.50000000000001 155.5,99.50000000000003 155.50000000000003,77.50000000000003 155.5,99.50000000000003 177.5,99.50000000000006 177.50000000000003,77.50000000000006 177.5,99.50000000000006 199.5,99.50000000000009 199.50000000000003,77.50000000000009 199.5,99.50000000000009 199.50000000000006,77.50000000000009 177.50000000000006,77.50000000000004 199.50000000000006,77.50000000000009 199.50000000000009,55.500000000000085 177.50000000000009,55.50000000000004 199.50000000000009,55.500000000000085 199.50000000000014,33.500000000000085 177.50000000000014,33.50000000000003 199.50000000000014,33.500000000000085 199.5000000000002,11.500000000000085 177.5000000000002,11.500000000000028 199.5000000000002,11.500000000000085 177.5000000000002,11.500000000000028 177.50000000000014,33.50000000000003 177.5000000000002,11.500000000000028 155.5000000000002,11.499999999999972 155.5000000000001,33.49999999999997 155.5000000000002,11.499999999999972 133.5000000000002,11.499999999999886 133.5000000000001,33.499999999999886 133.5000000000002,11.499999999999886 111.5000000000002,11.499999999999801 111.50000000000011,33.4999999999998 111.5000000000002,11.499999999999801 111.50000000000011,33.4999999999998 133.5000000000001,33.499999999999886" stroke="black" stroke-linecap="round" stroke-width="1" /><polyline clip-path="url(#border_clip)" fill="none" points="133.5000000000001,33.499999999999886 111.50000000000011,33.4999999999998 111.50000000000003,55.4999999999998 133.50000000000003,55.499999999999886 111.50000000000003,55.4999999999998 111.49999999999993,77.4999999999998 133.49999999999991,77.4999999999999 111.49999999999993,77.4999999999998 111.49999999999983,99.4999999999998 133.49999999999983,99.4999999999999 111.49999999999983,99.4999999999998" stroke="black" stroke-linecap="round" stroke-width="1" /><polyline clip-path="url(#border_clip)" fill="none" points="111.49999999999983,99.4999999999998 133.49999999999983,99.49999999999991 133.49999999999994,77.49999999999991" stroke="black" stroke-linecap="round" stroke-width="0" /><polyline clip-path="url(#border_clip)" fill="none" points="133.49999999999994,77.49999999999991 155.49999999999994,77.50000000000003 155.50000000000003,55.50000000000003 155.49999999999994,77.50000000000003 177.49999999999994,77.50000000000014 177.50000000000006,55.50000000000014 177.49999999999994,77.50000000000014 177.50000000000006,55.50000000000014 155.50000000000006,55.500000000000014 177.50000000000006,55.50000000000014 177.50000000000017,33.50000000000014 155.50000000000017,33.500000000000014 177.50000000000017,33.50000000000014 155.50000000000017,33.500000000000014 155.50000000000003,55.500000000000014 155.50000000000017,33.500000000000014 133.50000000000017,33.49999999999987 133.50000000000003,55.49999999999987 133.50000000000017,33.49999999999987 133.50000000000003,55.49999999999987 155.50000000000003,55.500000000000014 133.50000000000003,55.49999999999987 133.4999999999999,77.49999999999987 155.4999999999999,77.50000000000003 133.4999999999999,77.49999999999987" stroke="black" stroke-linecap="round" stroke-width="1" /><polyline clip-path="url(#border_clip)" fill="none" points="133.4999999999999,77.49999999999987 111.49999999999989,77.49999999999972 111.49999999999973,99.49999999999972" stroke="black" stroke-linecap="round" stroke-width="0" /><polyline clip-path="url(#border_clip)" fill="none" points="111.49999999999973,99.49999999999972 111.49999999999964,110.49999999999972" stroke="black" stroke-linecap="round" stroke-width="0" /><polygon clip-path="url(#border_clip)" fill="#ffffff" fill-rule="evenodd" points="111.49999999999964,110.49999999999972 111.499999999999,198.49999999999972 199.499999999999,198.50000000000037 199.49999999999966,110.50000000000037 111.49999999999966,110.4999999999997" stroke-width="0" /><polyline clip-path="url(#border_clip)" fill="none" points="111.49999999999964,110.49999999999972 111.499999999999,198.49999999999972 199.499999999999,198.50000000000037 199.49999999999966,110.50000000000037 111.49999999999966,110.4999999999997 111.49999999999949,132.49999999999972 133.4999999999995,132.49999999999986 111.49999999999949,132.49999999999972 111.49999999999932,154.49999999999972 133.49999999999932,154.4999999999999 111.49999999999932,154.49999999999972 111.49999999999915,176.49999999999972 133.49999999999915,176.4999999999999 111.49999999999915,176.49999999999972 111.49999999999896,198.49999999999972 133.49999999999898,198.4999999999999 111.49999999999896,198.49999999999972 133.49999999999898,198.4999999999999 133.49999999999915,176.4999999999999 133.49999999999898,198.4999999999999 155.49999999999898,198.50000000000009 155.49999999999915,176.50000000000009 155.49999999999898,198.50000000000009 177.49999999999898,198.50000000000028 177.49999999999915,176.50000000000028 177.49999999999898,198.50000000000028 199.49999999999898,198.50000000000048 199.49999999999918,176.50000000000048 199.49999999999898,198.50000000000048 199.49999999999918,176.50000000000048 177.49999999999918,176.50000000000028 199.49999999999918,176.50000000000048 199.49999999999937,154.50000000000048 177.49999999999937,154.50000000000028 199.49999999999937,154.50000000000048 199.4999999999996,132.50000000000048 177.4999999999996,132.50000000000026 199.4999999999996,132.50000000000048 199.49999999999983,110.50000000000048 177.49999999999983,110.50000000000026 199.49999999999983,110.50000000000048 177.49999999999983,110.50000000000026 177.4999999999996,132.50000000000026" stroke="black" stroke-linecap="round" stroke-width="1" /><polyline clip-path="url(#border_clip)" fill="none" points="177.4999999999996,132.50000000000026 177.49999999999983,110.50000000000026 155.49999999999983,110.50000000000001 155.4999999999996,132.5 155.49999999999983,110.50000000000001 133.49999999999983,110.49999999999977 133.4999999999996,132.49999999999977 133.49999999999983,110.49999999999977 111.49999999999984,110.49999999999952 111.49999999999959,132.49999999999952 111.49999999999984,110.49999999999952" stroke="black" stroke-linecap="round" stroke-width="1" /><polyline clip-path="url(#border_clip)" fill="none" points="111.49999999999984,110.49999999999952 111.49999999999959,132.49999999999952 133.4999999999996,132.49999999999977" stroke="black" stroke-linecap="round" stroke-width="0" /><polyline clip-path="url(#border_clip)" fill="none" points="133.4999999999996,132.49999999999977 133.49999999999932,154.49999999999977 155.49999999999932,154.50000000000003 133.49999999999932,154.49999999999977 133.49999999999906,176.49999999999977 155.49999999999906,176.50000000000003 133.49999999999906,176.49999999999977 155.49999999999906,176.50000000000006 155.49999999999935,154.50000000000006 155.49999999999906,176.50000000000006 177.49999999999906,176.5000000000003 177.49999999999932,154.5000000000003 177.49999999999906,176.5000000000003 177.49999999999935,154.5000000000003 155.49999999999935,154.50000000000003 177.49999999999935,154.5000000000003 177.49999999999963,132.5000000000003 155.49999999999963,132.50000000000003 177.49999999999963,132.5000000000003 155.49999999999963,132.50000000000003 155.49999999999932,154.50000000000003 155.49999999999963,132.50000000000003 133.49999999999963,132.49999999999972 133.49999999999932,154.49999999999972 133.49999999999963,132.49999999999972" stroke="black" stroke-linecap="round" stroke-width="1" /><polyline clip-path="url(#border_clip)" fill="none" points="133.49999999999963,132.49999999999972 133.49999999999994,110.49999999999973 111.49999999999994,110.49999999999943" stroke="black" stroke-linecap="round" stroke-width="0" /><polyline clip-path="url(#border_clip)" fill="none" points="111.49999999999994,110.49999999999943 100.49999999999994,110.49999999999926 100.49999999999959,135.49999999999926" stroke="black" stroke-linecap="round" stroke-width="0" /><polygon clip-path="url(#border_clip)" fill="#ffffff" fill-rule="evenodd" points="100.49999999999959,135.49999999999926 12.499999999999588,135.499999999998 12.499999999998323,223.499999999998 100.49999999999832,223.49999999999926 100.4999999999996,135.49999999999926" stroke-width="0" /><polyline clip-path="url(#border_clip)" fill="none" points="100.49999999999959,135.49999999999926 12.499999999999588,135.499999999998 12.499999999998323,223.499999999998 100.49999999999832,223.49999999999926 100.4999999999996,135.49999999999926 78.4999999999996,135.49999999999895 78.49999999999928,157.49999999999895 78.4999999999996,135.49999999999895 56.4999999999996,135.49999999999864 56.499999999999275,157.49999999999864 56.4999999999996,135.49999999999864 34.4999999999996,135.4999999999983 34.499999999999275,157.4999999999983 34.4999999999996,135.4999999999983 12.499999999999602,135.49999999999795 12.499999999999261,157.49999999999795 12.499999999999602,135.49999999999795 12.499999999999261,157.49999999999795 34.49999999999926,157.4999999999983 12.499999999999261,157.49999999999795 12.499999999998906,179.49999999999795 34.499999999998906,179.49999999999832 12.499999999998906,179.49999999999795 12.49999999999855,201.49999999999795 34.49999999999855,201.49999999999832 12.49999999999855,201.49999999999795 12.499999999998195,223.49999999999795 34.499999999998195,223.4999999999983 12.499999999998195,223.49999999999795 34.499999999998195,223.49999999999832 34.499999999998565,201.49999999999832 34.499999999998195,223.49999999999832 56.499999999998195,223.4999999999987 56.49999999999857,201.4999999999987 56.499999999998195,223.4999999999987 78.4999999999982,223.4999999999991 78.49999999999858,201.4999999999991 78.4999999999982,223.4999999999991 100.4999999999982,223.49999999999946 100.49999999999858,201.49999999999946 100.4999999999982,223.49999999999946 100.49999999999858,201.49999999999946 78.49999999999858,201.49999999999906" stroke="black" stroke-linecap="round" stroke-width="1" /><polyline clip-path="url(#border_clip)" fill="none" points="78.49999999999858,201.49999999999906 100.49999999999858,201.49999999999946 100.49999999999898,179.49999999999946 78.49999999999898,179.49999999999906 100.49999999999898,179.49999999999946 100.49999999999937,157.49999999999946 78.49999999999937,157.49999999999906 100.49999999999937,157.49999999999946 100.49999999999979,135.49999999999946 78.49999999999979,135.49999999999906 100.49999999999979,135.49999999999946" stroke="black" stroke-linecap="round" stroke-width="1" /><polyline clip-path="url(#border_clip)" fill="none" points="100.49999999999979,135.49999999999946 78.49999999999979,135.49999999999903 78.49999999999937,157.49999999999903" stroke="black" stroke-linecap="round" stroke-width="0" /><polyline clip-path="url(#border_clip)" fill="none" points="78.49999999999937,157.49999999999903 56.499999999999375,157.49999999999864 56.49999999999896,179.49999999999864 56.499999999999375,157.49999999999864 34.499999999999375,157.4999999999982 34.49999999999896,179.4999999999982 34.499999999999375,157.4999999999982 34.49999999999895,179.4999999999982 56.49999999999895,179.49999999999864 34.49999999999895,179.4999999999982 34.49999999999852,201.4999999999982 56.49999999999852,201.49999999999864 34.49999999999852,201.4999999999982 56.49999999999852,201.49999999999864 56.49999999999896,179.49999999999864 56.49999999999852,201.49999999999864 78.49999999999852,201.4999999999991 78.49999999999896,179.4999999999991 78.49999999999852,201.4999999999991 78.49999999999898,179.4999999999991 56.49999999999897,179.49999999999864 78.49999999999898,179.4999999999991 78.49999999999943,157.4999999999991 56.499999999999424,157.49999999999864 78.49999999999943,157.4999999999991" stroke="black" stroke-linecap="round" stroke-width="1" /><polyline clip-path="url(#border_clip)" fill="none" points="78.49999999999943,157.4999999999991 100.49999999999943,157.49999999999955 100.49999999999989,135.49999999999955" stroke="black" stroke-linecap="round" stroke-width="0" /><polyline clip-path="url(#border_clip)" fill="none" points="100.49999999999989,135.49999999999955 100.50000000000011,124.49999999999955" stroke="black" stroke-linecap="round" stroke-width="0" /><polygon clip-path="url(#border_clip)" fill="#ffffff" fill-rule="evenodd" points="100.50000000000011,124.49999999999955 100.50000000000198,36.499999999999545 12.500000000001975,36.499999999997684 12.5000000000001,124.49999999999768 100.5000000000001,124.49999999999956" stroke-width="0" /><polyline clip-path="url(#border_clip)" fill="none" points="100.50000000000011,124.49999999999955 100.50000000000198,36.499999999999545 12.500000000001975,36.499999999997684 12.5000000000001,124.49999999999768 100.5000000000001,124.49999999999956 100.50000000000057,102.49999999999956 78.50000000000057,102.49999999999909 100.50000000000057,102.49999999999956 100.50000000000104,80.49999999999956 78.50000000000105,80.49999999999908 100.50000000000105,80.49999999999956 100.50000000000152,58.49999999999956 78.50000000000152,58.499999999999076 100.50000000000152,58.49999999999956 100.50000000000202,36.49999999999956 78.50000000000202,36.499999999999076 100.50000000000202,36.49999999999956 78.50000000000202,36.49999999999906 78.50000000000152,58.49999999999906 78.50000000000202,36.49999999999906 56.50000000000201,36.499999999998565 56.50000000000151,58.499999999998565 56.50000000000201,36.499999999998565 34.50000000000202,36.49999999999807 34.500000000001506,58.49999999999807 34.50000000000202,36.49999999999807 12.500000000002018,36.499999999997556 12.500000000001506,58.499999999997556 12.500000000002018,36.499999999997556 12.500000000001506,58.499999999997556 34.500000000001506,58.49999999999807 12.500000000001506,58.499999999997556 12.50000000000098,80.49999999999756 34.50000000000098,80.49999999999808 12.50000000000098,80.49999999999756 12.500000000000455,102.49999999999756 34.500000000000455,102.49999999999808 12.500000000000455,102.49999999999756 12.499999999999929,124.49999999999756 34.49999999999993,124.4999999999981 12.499999999999929,124.49999999999756 34.49999999999993,124.4999999999981 34.50000000000047,102.4999999999981" stroke="black" stroke-linecap="round" stroke-width="1" /><polyline clip-path="url(#border_clip)" fill="none" points="34.50000000000047,102.4999999999981 34.49999999999993,124.4999999999981 56.49999999999993,124.49999999999864 56.500000000000476,102.49999999999864 56.49999999999993,124.49999999999864 78.49999999999993,124.49999999999919 78.50000000000048,102.49999999999919 78.49999999999993,124.49999999999919 100.49999999999993,124.49999999999974 100.50000000000048,102.49999999999974 100.49999999999993,124.49999999999974" stroke="black" stroke-linecap="round" stroke-width="1" /><polyline clip-path="url(#border_clip)" fill="none" points="100.49999999999993,124.49999999999974 100.50000000000048,102.49999999999974 78.50000000000048,102.49999999999918" stroke="black" stroke-linecap="round" stroke-width="0" /><polyline clip-path="url(#border_clip)" fill="none" points="78.50000000000048,102.49999999999918 78.50000000000105,80.49999999999918 56.50000000000105,80.49999999999861 78.50000000000105,80.49999999999918 78.50000000000162,58.499999999999176 56.50000000000162,58.49999999999861 78.50000000000162,58.499999999999176 56.50000000000162,58.49999999999861 56.500000000001044,80.49999999999861 56.50000000000162,58.49999999999861 34.50000000000162,58.499999999998025 34.50000000000104,80.49999999999802 34.50000000000162,58.499999999998025 34.50000000000104,80.49999999999802 56.50000000000104,80.49999999999861 34.50000000000104,80.49999999999802 34.50000000000044,102.49999999999802 56.50000000000044,102.49999999999861 34.50000000000044,102.49999999999802 56.50000000000044,102.49999999999862 56.50000000000104,80.49999999999862 56.50000000000044,102.49999999999862 78.50000000000044,102.49999999999923 78.50000000000105,80.49999999999923 78.50000000000044,102.49999999999923" stroke="black" stroke-linecap="round" stroke-width="1" /><polyline clip-path="url(#border_clip)" fill="none" points="78.50000000000044,102.49999999999923 78.49999999999983,124.49999999999923 100.49999999999983,124.49999999999984" stroke="black" stroke-linecap="round" stroke-width="0" /></svg>